<mxfile host="app.diagrams.net" modified="2022-01-04T10:24:28.231Z" agent="5.0 (Macintosh; Intel Mac OS X 10_14_6) AppleWebKit/537.36 (KHTML, like Gecko) Chrome/96.0.4664.110 Safari/537.36" etag="tBH1lBPoZnao_6PzrrdH" version="16.1.2" type="github">
  <diagram id="hRGe5qn3MbLvBOx0OaPw" name="Page-1">
    <mxGraphModel dx="1666" dy="714" grid="1" gridSize="10" guides="1" tooltips="1" connect="1" arrows="1" fold="1" page="1" pageScale="1" pageWidth="827" pageHeight="1169" math="0" shadow="0">
      <root>
        <mxCell id="0" />
        <mxCell id="1" parent="0" />
        <mxCell id="8uodFkfitl7vGAv0y1zH-1" value="admin" style="shape=umlActor;verticalLabelPosition=bottom;labelBackgroundColor=#ffffff;verticalAlign=top;html=1;outlineConnect=0;" vertex="1" parent="1">
          <mxGeometry x="170" y="380" width="30" height="60" as="geometry" />
        </mxCell>
        <mxCell id="8uodFkfitl7vGAv0y1zH-2" value="développeur" style="shape=umlActor;verticalLabelPosition=bottom;labelBackgroundColor=#ffffff;verticalAlign=top;html=1;outlineConnect=0;" vertex="1" parent="1">
          <mxGeometry x="180" y="165" width="30" height="60" as="geometry" />
        </mxCell>
        <mxCell id="8uodFkfitl7vGAv0y1zH-3" value="utilisateur" style="shape=umlActor;verticalLabelPosition=bottom;labelBackgroundColor=#ffffff;verticalAlign=top;html=1;outlineConnect=0;" vertex="1" parent="1">
          <mxGeometry x="290" y="270" width="30" height="60" as="geometry" />
        </mxCell>
        <mxCell id="8uodFkfitl7vGAv0y1zH-4" value="" style="shape=folder;fontStyle=1;spacingTop=10;tabWidth=111;tabHeight=24;tabPosition=left;html=1;align=left;" vertex="1" parent="1">
          <mxGeometry x="420" y="120" width="310" height="450" as="geometry" />
        </mxCell>
        <mxCell id="8uodFkfitl7vGAv0y1zH-5" value="authentification" style="text;html=1;strokeColor=none;fillColor=none;align=center;verticalAlign=middle;whiteSpace=wrap;rounded=0;" vertex="1" parent="1">
          <mxGeometry x="450" y="120" width="40" height="20" as="geometry" />
        </mxCell>
        <mxCell id="8uodFkfitl7vGAv0y1zH-6" value="se connecter à l’application" style="ellipse;whiteSpace=wrap;html=1;fillColor=#FFE599;" vertex="1" parent="1">
          <mxGeometry x="440" y="290" width="140" height="70" as="geometry" />
        </mxCell>
        <mxCell id="8uodFkfitl7vGAv0y1zH-7" value="réinitialiser du mot de passe" style="ellipse;whiteSpace=wrap;html=1;fillColor=#FFE599;" vertex="1" parent="1">
          <mxGeometry x="560" y="160" width="140" height="70" as="geometry" />
        </mxCell>
        <mxCell id="8uodFkfitl7vGAv0y1zH-8" value="créer un nouveau compte dev" style="ellipse;whiteSpace=wrap;html=1;fillColor=#FFE599;" vertex="1" parent="1">
          <mxGeometry x="580" y="400" width="140" height="70" as="geometry" />
        </mxCell>
        <mxCell id="8uodFkfitl7vGAv0y1zH-9" value="ouvrir un ticket demandant la création d&#39;un compte" style="ellipse;whiteSpace=wrap;html=1;fillColor=#FFE599;" vertex="1" parent="1">
          <mxGeometry x="450" y="480" width="140" height="70" as="geometry" />
        </mxCell>
      </root>
    </mxGraphModel>
  </diagram>
</mxfile>
